<svg viewBox="0 0 64 64" xmlns="http://www.w3.org/2000/svg">
  <defs>
    <radialGradient id="galaxyCore" cx="50%" cy="50%" r="50%">
      <stop offset="0%" stopColor="#000000" />
      <stop offset="20%" stopColor="#1a0033" />
      <stop offset="40%" stopColor="#330066" />
      <stop offset="60%" stopColor="#4d0099" />
      <stop offset="80%" stopColor="#6600cc" />
      <stop offset="100%" stopColor="#8000ff" />
    </radialGradient>
    
    <radialGradient id="starCore" cx="50%" cy="50%" r="50%">
      <stop offset="0%" stopColor="#ffffff" />
      <stop offset="30%" stopColor="#ffff80" />
      <stop offset="60%" stopColor="#ffcc00" />
      <stop offset="80%" stopColor="#ff6600" />
      <stop offset="100%" stopColor="#ff0000" />
    </radialGradient>
    
    <radialGradient id="nebulaGlow" cx="50%" cy="50%" r="50%">
      <stop offset="0%" stopColor="#ff0066" />
      <stop offset="40%" stopColor="#cc0066" />
      <stop offset="70%" stopColor="#990066" />
      <stop offset="100%" stopColor="#660066" />
    </radialGradient>
    
    <radialGradient id="dustCloud" cx="50%" cy="50%" r="50%">
      <stop offset="0%" stopColor="#ffffff" stopOpacity="0.1" />
      <stop offset="50%" stopColor="#cccccc" stopOpacity="0.05" />
      <stop offset="100%" stopColor="#999999" stopOpacity="0.02" />
    </radialGradient>
  </defs>
  
  <!-- Galaxy background -->
  <circle cx="32" cy="32" r="30" fill="url(#galaxyCore)"/>
  
  <!-- Dust clouds -->
  <circle cx="28" cy="28" r="8" fill="url(#dustCloud)" />
  <circle cx="36" cy="36" r="6" fill="url(#dustCloud)" />
  <circle cx="24" cy="40" r="4" fill="url(#dustCloud)" />
  <circle cx="40" cy="24" r="5" fill="url(#dustCloud)" />
  
  <!-- Spiral arms -->
  <path d="M 32 32 Q 40 20 48 32 Q 44 44 32 48 Q 20 44 16 32 Q 20 20 32 16 Q 44 20 48 32" 
    stroke="url(#nebulaGlow)" stroke-width="1.5" fill="none" 
    style="filter: drop-shadow(0 0 8px #ff0066) drop-shadow(0 0 16px #cc0066)"/>
  <path d="M 32 32 Q 44 28 52 40 Q 48 52 32 56 Q 16 52 12 40 Q 16 28 28 32 Q 40 36 52 40" 
    stroke="url(#nebulaGlow)" stroke-width="1" fill="none" 
    style="filter: drop-shadow(0 0 6px #ff0066) drop-shadow(0 0 12px #cc0066)"/>
  
  <!-- Star clusters -->
  <circle cx="32" cy="12" r="1.5" fill="#00ffff" 
    style="filter: drop-shadow(0 0 4px #00ffff) drop-shadow(0 0 8px #0088ff)"/>
  <circle cx="34" cy="14" r="1" fill="#0088ff" 
    style="filter: drop-shadow(0 0 3px #0088ff)"/>
  <circle cx="30" cy="10" r="0.8" fill="#00ccff" 
    style="filter: drop-shadow(0 0 2px #00ccff)"/>
  
  <circle cx="52" cy="32" r="2" fill="#ff4400" 
    style="filter: drop-shadow(0 0 6px #ff4400) drop-shadow(0 0 12px #ff2200)"/>
  <circle cx="54" cy="30" r="1.2" fill="#ff6600" 
    style="filter: drop-shadow(0 0 4px #ff6600)"/>
  
  <circle cx="32" cy="52" r="1.8" fill="#ffff00" 
    style="filter: drop-shadow(0 0 5px #ffff00) drop-shadow(0 0 10px #ffcc00)"/>
  <circle cx="30" cy="54" r="1" fill="#ffcc00" 
    style="filter: drop-shadow(0 0 3px #ffcc00)"/>
  
  <circle cx="12" cy="32" r="1.5" fill="#ffffff" 
    style="filter: drop-shadow(0 0 4px #ffffff) drop-shadow(0 0 8px #cccccc)"/>
  <circle cx="10" cy="30" r="0.8" fill="#cccccc" 
    style="filter: drop-shadow(0 0 2px #cccccc)"/>
  
  <!-- Accretion disk -->
  <ellipse cx="32" cy="32" rx="6" ry="2" fill="url(#starCore)" 
    style="filter: drop-shadow(0 0 8px #ffff00) drop-shadow(0 0 16px #ff6600)"/>
  <ellipse cx="32" cy="32" rx="4" ry="1.5" fill="url(#starCore)" 
    style="filter: drop-shadow(0 0 6px #ffff00) drop-shadow(0 0 12px #ff6600)"/>
  
  <!-- Central star -->
  <circle cx="32" cy="32" r="2.5" fill="url(#starCore)" 
    style="filter: drop-shadow(0 0 10px #ffffff) drop-shadow(0 0 20px #ffff00) drop-shadow(0 0 30px #ff6600)"/>
  
  <!-- Stellar flares -->
  <path d="M 32 32 L 32 20" stroke="#ff6600" stroke-width="0.5" 
    style="filter: drop-shadow(0 0 3px #ff6600)"/>
  <path d="M 32 32 L 44 32" stroke="#ff6600" stroke-width="0.5" 
    style="filter: drop-shadow(0 0 3px #ff6600)"/>
  <path d="M 32 32 L 32 44" stroke="#ff6600" stroke-width="0.5" 
    style="filter: drop-shadow(0 0 3px #ff6600)"/>
  <path d="M 32 32 L 20 32" stroke="#ff6600" stroke-width="0.5" 
    style="filter: drop-shadow(0 0 3px #ff6600)"/>
</svg> 